Coordinates
version=1
nRows=13
nColumns=27
inDegrees=yes

Units are S.I. units (second, meters, Newtons, ...)
If the header above contains a line with 'inDegrees', this indicates whether rotational values are in degrees (yes) or radians (no).

endheader
time	pelvis_rotation	pelvis_tilt	pelvis_list	pelvis_tx	pelvis_ty	pelvis_tz	hip_flexion_r	hip_adduction_r	hip_rotation_r	knee_angle_r	knee_rotation_r	knee_adduction_r	knee_angle_r_beta	ankle_angle_r	subtalar_angle_r	mtp_angle_r	hip_flexion_l	hip_adduction_l	hip_rotation_l	knee_angle_l	knee_rotation_l	knee_adduction_l	knee_angle_l_beta	ankle_angle_l	subtalar_angle_l	mtp_angle_l
      4.26000000	     14.81719786	    -33.36493629	      3.34338677	     -0.06735553	      0.57698948	     -1.17702519	    107.06622304	    -47.23449081	      8.97060975	     91.82888470	      0.00000000	      9.34526160	      1.60271639	     13.52044624	      0.00000000	      0.00000000	    109.08115927	    -15.56501906	     13.36669067	     84.63066280	      0.00000000	     -9.79975884	      1.47708371	      8.37562459	      0.00000000	      0.00000000
      4.26500000	     15.50473606	    -33.43732932	      3.28561252	     -0.06741869	      0.57810824	     -1.17759900	    106.63468569	    -48.18743621	      8.23548322	     91.61078887	      0.00000000	      9.63227587	      1.59890990	     13.52408550	      0.00000000	      0.00000000	    109.12241943	    -14.70050243	     13.61455608	     84.46416376	      0.00000000	     -9.89157563	      1.47417776	      8.33376640	      0.00000000	      0.00000000
      4.27000000	     15.45430774	    -33.42073201	      3.26389805	     -0.06783272	      0.57931446	     -1.17777831	    106.38572473	    -48.13358784	      8.01919655	     91.37745938	      0.00000000	      9.62210546	      1.59483753	     13.46316127	      0.00000000	      0.00000000	    108.94473016	    -14.68874455	     13.57238985	     84.26378011	      0.00000000	     -9.89028163	      1.47068040	      8.26720559	      0.00000000	      0.00000000
      4.27500000	     14.75479795	    -33.42708865	      3.32142480	     -0.06862688	      0.58063760	     -1.17758732	    106.47135688	    -47.15313096	      8.35990470	     91.12582012	      0.00000000	      9.29962627	      1.59044559	     13.29893202	      0.00000000	      0.00000000	    108.64636557	    -15.44689712	     13.22440825	     84.01015234	      0.00000000	     -9.79262482	      1.46625376	      8.19752755	      0.00000000	      0.00000000
      4.28000000	     15.46384312	    -33.43493756	      3.25249815	     -0.06860779	      0.58168584	     -1.17817345	    105.95170469	    -48.14660067	      7.58044801	     90.92472738	      0.00000000	      9.60380375	      1.58693586	     13.33808849	      0.00000000	      0.00000000	    108.64160690	    -14.55811308	     13.49451369	     83.86386566	      0.00000000	     -9.88775744	      1.46370058	      8.15589329	      0.00000000	      0.00000000
      4.28500000	     15.43831862	    -33.43594646	      3.24068505	     -0.06904196	      0.58288677	     -1.17833159	    105.72641715	    -48.10652414	      7.36969069	     90.68840391	      0.00000000	      9.59167034	      1.58281124	     13.25210502	      0.00000000	      0.00000000	    108.47529683	    -14.52172470	     13.45924441	     83.65786774	      0.00000000	     -9.88648458	      1.46010524	      8.14427385	      0.00000000	      0.00000000
      4.29000000	     14.64309106	    -33.43217112	      3.32938172	     -0.06990595	      0.58406303	     -1.17807278	    105.92026982	    -46.97308737	      7.88072241	     90.47083899	      0.00000000	      9.24154314	      1.57901402	     13.06479312	      0.00000000	      0.00000000	    108.16870474	    -15.39613935	     13.04833860	     83.42787743	      0.00000000	     -9.78658473	      1.45609115	      8.02970658	      0.00000000	      0.00000000
      4.29500000	     15.48649344	    -33.43117547	      3.22146240	     -0.06978913	      0.58514547	     -1.17865931	    105.26454519	    -48.14830455	      6.92083633	     90.25337283	      0.00000000	      9.57336964	      1.57521852	     13.15360066	      0.00000000	      0.00000000	    108.17931864	    -14.35909623	     13.40572542	     83.26195782	      0.00000000	     -9.88380708	      1.45319531	      7.98911036	      0.00000000	      0.00000000
      4.30000000	     14.70362042	    -33.46036872	      3.32629206	     -0.07066729	      0.58627711	     -1.17838121	    105.52944746	    -47.02867795	      7.46464134	     90.03969313	      0.00000000	      9.21285796	      1.57148910	     12.97698162	      0.00000000	      0.00000000	    107.90627433	    -15.23000507	     12.98483238	     83.03528410	      0.00000000	     -9.78137440	      1.44923910	      7.93739739	      0.00000000	      0.00000000
      4.30500000	     15.42481534	    -33.36845234	      3.13109650	     -0.07047231	      0.58743208	     -1.17884222	    104.67582061	    -48.07857045	      6.40391543	     89.80611218	      0.00000000	      9.54554830	      1.56741235	     12.99667960	      0.00000000	      0.00000000	    107.82631322	    -14.31883228	     13.38218125	     82.86372623	      0.00000000	     -9.88186782	      1.44624485	      7.87911415	      0.00000000	      0.00000000
      4.31000000	     15.45847105	    -33.42454436	      3.18382370	     -0.07090277	      0.58842703	     -1.17900250	    104.60768558	    -48.06418569	      6.31705632	     89.61945003	      0.00000000	      9.54029513	      1.56415448	     12.98079399	      0.00000000	      0.00000000	    107.73061915	    -14.24308797	     13.31096285	     82.68309766	      0.00000000	     -9.88047072	      1.44309229	      7.84540019	      0.00000000	      0.00000000
      4.31500000	     14.70642100	    -33.41196606	      3.27646919	     -0.07170884	      0.58950931	     -1.17867854	    104.82366197	    -46.98634004	      6.85338630	     89.41749844	      0.00000000	      9.16307808	      1.56062976	     12.81392811	      0.00000000	      0.00000000	    107.43121805	    -15.08342065	     12.89952040	     82.45772839	      0.00000000	     -9.77527219	      1.43915885	      7.75770222	      0.00000000	      0.00000000
      4.32000000	     15.50875764	    -33.39191531	      3.14365760	     -0.07155791	      0.59051024	     -1.17917406	    104.11045348	    -48.08498417	      5.87129269	     89.21525915	      0.00000000	      9.51825976	      1.55710002	     12.87898126	      0.00000000	      0.00000000	    107.43177363	    -14.10230022	     13.28529927	     82.30141755	      0.00000000	     -9.87815435	      1.43643072	      7.73113646	      0.00000000	      0.00000000
